<svg t="1707147332079" class="icon" viewBox="0 0 1024 1024" version="1.1" xmlns="http://www.w3.org/2000/svg" p-id="5124" width="200" height="200">
	<path d="M478.212293 589.879155c-6.14322 17.405789-11.774504 32.763837-16.381919 48.633821-6.655154 20.477398-1.535805 39.418992 9.214829 57.84865 4.607415 7.167089 8.190959 10.238699 16.893854 3.07161 23.549008-19.453528 26.620618-18.941593 50.169626-0.511935 6.655154 5.11935 9.726764 4.607415 14.334179-2.04774 14.334179-20.989333 15.358049-43.514471 7.679024-66.551544-4.607415-13.822244-10.238699-27.132553-15.869984-41.978667 10.238699-0.511935 14.334179 6.14322 18.941594 10.750634 39.930927 39.418992 79.349919 79.349919 119.79278 118.256976 10.750634 10.238699 9.726764 16.893854 0 26.620618-21.501268 20.989333-41.978667 43.002537-61.94413 65.015739-38.395122 42.490602-50.681561 90.612488-31.228032 145.901464 4.607415 13.822244 8.190959 28.156423 12.286439 41.978666 2.559675 8.702894 2.559675 17.405789-5.11935 23.037073-8.190959 6.14322-16.381919 3.07161-23.549008-2.559674-38.907057-28.668358-77.302179-57.336715-116.209236-86.517008-9.214829-7.167089-18.429659-13.822244-27.644487-20.989334-17.405789-14.334179-18.941593-24.060943-6.14322-41.978666 16.381919-23.037073 16.381919-23.037073-3.583545-43.002537-27.644488-27.644488-54.777041-55.80091-82.421528-83.445398-6.14322-6.14322-10.750634-10.750634-2.559675-19.453529 43.514471-46.586081 88.564748-91.124423 137.710504-131.567284 0.511935 0 2.04774 0.511935 5.631285-0.511935z m-38.907057 219.620097c1.02387-0.511935 2.04774-0.511935 3.07161-1.02387 0-0.511935-0.511935-1.02387-0.511935-1.02387-1.02387 1.02387-2.04774 2.04774-2.559675 3.07161 4.607415-10.238699 0.511935-20.477398 1.02387-32.251902-18.941593 11.262569-18.941593 11.262569-6.655155 24.572878 2.04774 2.04774 3.583545 4.607415 5.631285 6.655154z m135.150829-5.119349c-1.535805-15.869984-9.214829-27.132553-20.477398-36.859317-5.631285-4.607415-9.726764-3.583545-14.334179 0.511935-3.583545 3.07161-9.214829 5.631285-4.607415 11.774504 12.286439 15.869984 7.679024 33.787707 7.679025 51.193496 0.511935 32.763837 0 65.01574 0 97.779577-2.04774 0.511935-4.607415 1.02387-6.655155 1.535805-9.214829-8.702894-17.917724-17.405789-27.132553-26.108683-16.381919-15.869984-15.358049-19.453528 6.655155-28.156423 3.07161 10.750634-8.702894 26.620618 12.798374 31.228032v-86.517008c0-3.583545-0.511935-7.679024-2.04774-10.750634-2.559675-4.09548-3.07161-12.798374-10.750634-8.702894-4.607415 2.559675-11.774504 5.631285-6.14322 15.358049 6.655154 11.262569-19.453528 56.312845-31.739967 53.75317-19.453528-4.09548-9.726764 7.679024-8.702895 13.310309 2.04774 10.238699 7.167089 19.453528 14.334179 27.132553 24.060943 26.108683 54.777041 43.002537 82.933464 65.01574-21.501268-51.705431-14.334179-104.434732-10.750635-160.747577 14.334179 15.358049 21.501268 5.11935 29.180293-3.583545 8.190959-9.726764 8.702894-22.013203 9.726764-34.299642 23.037073 12.798374 37.883187-4.607415 41.466732-45.562211 7.679024-2.559675 10.238699 14.334179 17.917724 5.631284 5.631285-6.14322 1.535805-15.358049-1.535805-22.525138-4.607415-10.238699-12.798374-17.405789-20.989334-25.084813-7.167089-6.655154-11.262569-2.559675-16.893853 2.04774-6.14322 5.631285-4.607415 8.702894-0.511935 14.846114 11.774504 16.381919 10.750634 42.490602-1.535805 57.336715-2.04774-14.846114-11.262569-24.060943-19.965463-33.787707-5.631285-6.655154-9.726764-5.11935-15.358049-0.511935s-7.167089 7.679024-2.04774 14.846114c14.334179 19.965463 8.190959 40.442862-0.511935 59.89639z m-108.018276 0.511935c-21.501268 12.286439-20.989333 13.822244 2.04774 30.204162-0.511935-10.238699-1.535805-19.965463-2.04774-30.204162z m-56.312846-51.193496c-14.334179 12.286439-13.822244 13.822244 4.09548 24.060943-1.535805-8.190959-3.07161-15.869984-4.09548-24.060943zM588.790244 544.828879c15.869984 6.14322 28.156423 10.750634 40.954796 15.358048 24.060943 8.702894 46.586081 6.14322 68.08735-7.679024 7.167089-4.607415 9.214829-7.167089 2.04774-14.846114-18.429659-18.429659-18.941593-30.716098-2.04774-50.681561 7.167089-8.702894 4.09548-12.286439-3.07161-16.893853-15.358049-9.726764-31.228032-13.822244-49.145756-8.702895-18.429659 5.11935-37.371252 11.262569-56.312845 16.893854-2.04774-8.190959 4.09548-11.262569 8.190959-15.358049 40.442862-40.954797 80.885723-81.397658 120.81665-122.86439 9.214829-9.726764 15.358049-10.750634 25.084813-0.511935 18.941593 19.453528 39.930927 37.883187 58.872521 57.336716 49.657691 50.681561 108.018276 53.753171 170.986276 32.763837 8.702894-3.07161 17.405789-6.14322 26.108683-8.702894 8.190959-2.559675 15.358049-1.02387 20.989333 6.143219 5.11935 7.167089 3.583545 14.334179-1.02387 20.477399-37.883187 50.169626-75.254439 100.851187-113.649561 150.508877-10.750634 13.822244-23.549008 11.774504-36.859317 1.535805-23.037073-17.405789-23.549008-16.893854-43.514471 3.07161-28.156423 28.156423-56.312845 56.312845-83.957334 84.469268-5.631285 5.631285-9.726764 10.750634-17.917723 3.07161-46.586081-43.002537-91.636358-88.052813-131.567284-137.198569-1.02387-1.02387-1.535805-3.07161-3.07161-8.190959z m261.086829-76.278309c6.655154-5.11935 9.726764 1.535805 13.822244 4.09548 4.607415 2.559675 9.726764 3.583545 13.310309-0.511935 4.09548-4.607415 1.535805-10.238699-1.535805-13.310309-4.607415-4.09548-7.679024-16.893854-17.917724-5.11935-3.583545 4.09548-6.655154-1.02387-8.702894-3.07161-4.607415-4.09548-9.726764-8.190959-16.381919-6.655154-13.310309 3.07161-22.013203-3.07161-31.228032-13.310309-13.310309-14.846114-23.037073-13.310309-33.275773 4.09548-2.559675 4.09548-5.11935 7.679024-9.726764 4.095479-3.07161-2.559675-9.214829-5.11935-3.07161-11.262569 4.09548-4.607415 7.167089-9.726764 10.2387-14.846114 7.679024-13.822244 3.07161-20.477398-12.798374-21.501268-5.11935 0-11.774504-1.02387-7.679025-8.702894 1.535805-3.07161 9.214829-3.583545 3.583545-8.702895-4.607415-4.09548-10.238699-8.702894-16.381919-5.631284-9.726764 5.11935-17.917724 12.798374-26.108683 20.477398-14.846114 13.310309-4.607415 17.917724 3.07161 25.084813 36.347382 36.347382 72.694764 72.182829 109.554081 108.018277 7.679024 7.167089 11.262569 12.798374 0.511935 19.965463-10.238699 6.655154-14.334179 14.334179-6.143219 27.644488-15.869984-10.750634-22.013203 2.04774-29.692228 8.702894-3.07161 2.559675-8.190959 5.11935-5.119349 10.238699 3.07161 4.607415 8.190959 7.167089 14.334178 6.14322 6.14322-1.02387 13.822244-5.11935 14.334179-9.726765 1.535805-14.334179 17.405789-15.358049 20.989333-24.060943 6.655154-16.893854 18.429659-12.798374 30.204163-13.310309 11.774504 0 23.549008-0.511935 34.811577 0.511935 16.893854 1.535805 25.596748-4.607415 25.596748-22.013203 0-10.750634 3.07161-19.453528 12.798374-19.965463-4.607415-5.11935-9.726764-10.750634-14.334179-16.381919-16.381919 25.596748-16.381919 25.596748-30.716097 7.16709 7.167089-3.583545 19.453528-0.511935 19.965463-12.286439 0.511935-9.214829-6.14322-15.869984-16.381919-23.037074 1.535805 20.989333-10.238699 22.525138-24.572878 22.013204-18.429659-0.511935-37.371252-6.14322-55.288975 2.559674-1.535805 0.511935-5.11935-2.559675-7.167089-4.095479-3.07161-2.559675-2.04774-5.631285 1.023869-7.16709 6.14322-3.07161 13.310309-5.631285 5.631285-14.334178-6.655154-8.190959-13.310309-9.726764-21.501268-1.535805-2.04774 2.04774-5.11935 3.583545-8.702895 0 1.02387-8.702894 17.917724-13.822244 4.607415-26.108683 8.190959 0.511935 11.774504 4.607415 14.846114 8.190959 7.167089 7.679024 14.846114 13.822244 21.501268 22.013203 9.726764 12.286439 23.037073 13.310309 29.692228 5.631285z m70.135089 10.238699c7.679024 5.631285 15.358049 11.262569 22.525138 16.893854 5.631285 4.09548 9.214829 1.02387 12.286439-2.559675 7.167089-7.679024 14.334179-15.869984 20.989334-23.549008 2.04774-2.04774 4.607415-5.11935 3.071609-8.19096-2.559675-4.09548-6.14322-1.535805-9.726764 0-14.846114 7.167089-28.156423 22.013203-49.145756 17.405789z m-135.662764 127.471805c-5.631285-6.655154-10.750634-17.405789-16.893854-14.846114-9.726764 3.583545-17.405789 13.822244-18.429658 25.084813-0.511935 7.167089 8.190959 8.190959 14.334179 7.679024 10.750634-1.02387 15.358049-9.726764 20.989333-17.917723zM434.185886 548.924358c0.511935 8.702894-5.631285 11.774504-9.726764 15.869984-39.418992 39.930927-79.349919 79.861854-118.256975 120.304715-9.726764 10.238699-15.869984 11.774504-26.620618 1.02387-20.989333-21.501268-42.490602-41.978667-64.503805-62.456065-40.954797-37.883187-88.052813-50.681561-142.317919-32.763837-14.846114 5.11935-30.716098 8.702894-45.562211 13.310309-9.214829 3.07161-16.893854 2.559675-23.037073-5.11935s-3.07161-14.846114 1.535805-22.013203c34.811577-50.681561 73.206699-99.315382 110.577951-148.461138 10.750634-13.822244 24.060943-14.334179 36.859317-4.09548 26.108683 22.013203 27.132553 15.358049 47.609951-5.119349 27.132553-27.132553 54.777041-54.265106 81.397659-81.909594 7.167089-7.679024 12.798374-9.214829 20.989333-0.511935 41.466732 43.002537 83.957333 85.493138 125.936 128.495675 3.07161 3.583545 7.167089 7.167089 7.167089 13.310309-10.238699 2.04774-17.917724-4.607415-26.108683-8.190959-28.156423-11.774504-55.288976-13.822244-82.933463 2.04774-7.679024 4.607415-10.238699 8.190959-2.559675 16.381918 17.405789 18.429659 18.429659 26.620618 1.535805 47.609951-9.214829 11.262569-4.09548 15.358049 5.11935 20.477399 22.013203 12.286439 44.538341 11.262569 67.063479 2.559674 11.774504-3.583545 22.525138-11.262569 35.835447-10.750634z m-307.67291 4.09548c34.811577-10.750634 62.456065 7.679024 86.517008 36.347382 14.846114 17.405789 32.763837 32.763837 49.145756 49.145756 22.525138 22.525138 22.525138 22.525138 45.562211 1.02387 2.04774-2.04774 4.607415-3.583545 7.679025-5.11935 10.750634-6.14322 19.965463-14.334179 14.334179-27.644487-6.14322-14.846114-16.381919-26.108683-33.787708-26.620618-19.965463-0.511935-28.156423-7.167089-32.763837-27.132553-3.583545-16.381919-23.549008-35.835447-34.811577-30.716097-11.774504 5.11935-16.381919-1.535805-22.525138-7.679025-14.334179-15.358049-22.013203-36.347382-39.418992-50.169626-12.286439-9.726764-20.477398-10.238699-31.228033 0.511935L44.603383 555.579513c-3.07161 3.07161-9.726764 5.631285-6.14322 11.262569 3.07161 4.607415 9.214829 3.07161 13.310309 0.511935 20.989333-14.846114 45.562211-14.846114 74.742504-14.334179z m118.256976-156.652097c14.334179 5.11935 24.572878 9.726764 33.275772-0.511935 3.583545-4.09548 2.04774-11.774504-3.583545-14.334179-13.310309-6.14322-17.917724 7.679024-29.692227 14.846114z m-56.312846 58.360585c14.334179 3.07161 25.596748 9.214829 33.787707-2.559675 3.07161-4.607415 1.535805-12.286439-4.095479-14.334179-13.822244-4.607415-18.941593 7.679024-29.692228 16.893854z m29.692228-29.692228c13.822244 5.631285 24.572878 8.702894 33.787707-2.047739 4.09548-5.11935 1.02387-11.774504-4.09548-13.822244-15.358049-6.14322-18.429659 9.726764-29.692227 15.869983zM572.92026 513.088911c0 33.787707-26.108683 60.408325-60.408325 60.408325-34.811577 0-61.94413-26.620618-61.94413-60.92026 0-33.275772 27.644488-60.92026 60.408325-60.92026 34.811577 0 61.94413 27.644488 61.94413 61.432195z" fill="currentColor" p-id="5125"></path>
	<path d="M834.519024 496.195058c9.214829-0.511935 18.941593-5.11935 23.549008 5.119349 2.04774 4.09548-4.607415 9.726764-8.702894 10.238699-10.238699 1.02387-11.774504-7.679024-14.846114-15.358048zM729.060422 392.784196c5.631285 4.607415 12.286439 10.238699 14.334179 18.429658 1.02387 2.559675-3.07161 5.11935-4.607414 4.09548-7.679024-3.583545-13.822244-9.726764-16.381919-17.405788-0.511935-2.559675 2.04774-5.631285 6.655154-5.11935zM892.367674 536.637919c-8.190959 1.535805-13.822244 2.04774-19.965463 0 9.726764-12.286439 9.726764-12.286439 19.965463 0zM874.961886 516.160521c-3.07161 5.631285-7.167089 10.238699-13.822244 11.262569-2.559675 0.511935-6.14322-2.559675-5.11935-5.631284 2.04774-6.14322 7.167089-9.214829 13.310309-10.750635 3.07161-1.02387 4.607415 2.04774 5.631285 5.11935zM849.365138 468.038635l1.02387-1.02387c0 0.511935-0.511935 1.02387-1.02387 1.02387 0.511935 0.511935 0 0 0 0zM237.602862 582.712066c13.310309 19.965463 31.739967 31.228032 43.002537 50.169626-9.726764 1.535805-13.310309-4.09548-16.893854-7.679025-20.477398-19.965463-40.954797-40.442862-60.408325-60.92026-17.917724-18.941593-37.883187-30.204163-65.01574-26.620618-8.190959 1.02387-15.869984-0.511935-22.525138-5.119349-15.869984-10.750634-16.381919-15.358049-3.07161-29.180293 8.702894-8.702894 17.405789-17.405789 26.620618-25.084813 9.214829-7.167089 18.429659-5.11935 26.108683 3.07161 5.631285 6.14322 8.702894 13.822244 3.583545 21.501268-2.559675 4.09548-6.655154 7.679024-12.286439 5.11935-3.583545-1.535805-6.14322-4.09548-4.607415-8.702895 1.535805-4.09548 5.11935-9.214829-1.535805-12.286439-4.09548-1.535805-6.655154 2.04774-9.214829 4.607415-4.09548 4.09548-7.167089 8.702894-3.583545 14.334179 6.655154 10.238699 13.822244 21.501268 27.644488 21.501268 10.750634 0 16.893854 5.11935 23.549008 11.774504 8.702894 9.214829 17.917724 18.429659 27.644488 27.132553 5.631285 5.11935 12.798374 11.262569 19.453528 8.702894 21.501268-7.679024 30.204163 8.190959 41.978667 19.453529 5.631285 5.631285 10.750634 11.774504 16.893854 16.893853 4.09548 3.583545 9.726764 3.583545 12.286439-2.559674 2.559675-5.631285-1.535805-7.167089-6.655155-6.655155-4.09548 0-6.655154-2.559675-5.631284-7.167089 0.511935-2.04774 2.04774-5.11935 3.583544-5.631285 3.583545-1.535805 5.631285 1.535805 7.16709 4.09548 5.11935 8.190959 17.405789 14.334179 5.119349 26.108683-10.750634 10.238699-18.429659 2.559675-26.620618-4.607415-11.262569-10.238699-20.477398-23.037073-33.787707-30.716097-2.04774-1.535805-5.631285-0.511935-12.798374-1.535805z" fill="currentColor" p-id="5126"></path>
	<path d="M228.899968 545.340814c3.07161-2.04774-1.02387-12.286439 7.679024-7.679025 5.11935 2.559675 10.238699 7.167089 7.16709 14.846114-3.07161 6.14322-8.702894 13.310309-15.358049 9.214829-16.893854-10.750634-30.716098-25.596748-41.466732-43.002536 16.381919 6.655154 24.572878 22.525138 38.395122 31.739967 2.559675 4.607415 6.14322 4.607415 10.238699 2.04774 2.04774-1.535805 2.559675-3.583545 1.02387-5.631284-2.04774-3.583545-5.11935-2.559675-7.679024-1.535805zM543.739967 435.786732c4.607415-11.774504 9.726764-23.037073 13.822244-35.323512 8.190959-25.084813 8.190959-49.145756-6.655154-72.182829-4.09548-6.655154-6.655154-9.726764-14.846114-2.559675-18.941593 17.917724-31.739967 18.429659-50.681561 1.535805-8.702894-7.679024-11.774504-4.09548-16.381919 3.07161-10.238699 16.381919-13.822244 33.787707-8.190959 52.729301 5.11935 17.405789 10.238699 34.811577 15.869984 52.217366-8.190959 2.04774-11.262569-3.583545-14.846114-6.655155-41.466732-40.954797-82.421528-81.909593-123.88826-122.352455-9.214829-9.214829-9.214829-14.846114 0-24.060943 19.453528-19.453528 38.395122-39.418992 57.336715-59.384455 43.002537-45.050276 57.336715-96.755707 36.347382-156.652098-4.09548-12.286439-7.679024-24.572878-11.262569-36.859317-2.559675-10.238699-0.511935-19.965463 7.679025-26.620618 8.702894-6.655154 16.381919 0.511935 23.037073 5.631285 47.098016 34.811577 94.196032 69.623154 141.294049 104.946667 18.429659 13.822244 19.453528 25.084813 5.631284 43.514471-15.358049 21.501268-15.869984 21.501268 3.583545 40.442862 28.156423 28.156423 55.80091 56.312845 84.469268 83.957333 8.190959 7.679024 10.238699 13.822244 1.02387 22.525138-41.978667 40.954797-83.445398 82.421528-125.424065 123.376325-4.09548 4.09548-9.726764 7.167089-14.334179 10.238699-1.535805 0-2.559675-0.511935-3.583545-1.535805z m-164.331121-158.699837c20.477398-2.04774 37.883187 8.702894 47.609951-12.798374 0.511935-1.535805 3.583545-3.583545 4.09548-3.071609 17.405789 10.750634 16.893854-7.679024 23.037073-14.334179 7.167089-7.167089 9.214829-17.917724 24.060943-17.405789 17.405789 0.511935 33.275772-31.228032 24.060943-43.514471-14.846114-18.941593-14.846114-31.739967 0.511935-50.681561 2.559675-3.583545 5.631285-6.655154 4.607414-11.262569-0.511935-3.583545 1.535805-9.726764-4.607414-10.2387-5.631285-0.511935-3.583545 4.607415-4.607415 8.19096-1.02387 4.607415-5.11935 8.190959-8.702894 7.679024-4.607415-0.511935-4.607415-6.14322-4.607415-10.750634 0-11.262569-2.559675-22.525138 6.14322-32.763837 5.631285-6.655154 4.09548-13.822244-1.535805-19.965464-8.702894-8.702894-17.917724-16.893854-30.716098-21.501268 18.941593 32.251902 18.941593 66.551545 17.917724 101.363122-0.511935 15.358049-1.02387 30.716098 0 45.562211 1.02387 12.798374-5.631285 20.477398-15.358049 26.620618-4.09548 2.559675-7.167089 7.167089-12.286439 1.02387-4.09548-5.11935-1.535805-8.702894 2.559675-12.286439 11.774504-10.750634 10.238699-24.572878 8.702894-41.466732-8.702894 8.190959-19.453528 11.262569-14.334179 24.572878 2.04774 4.607415-1.535805 8.702894-4.607414 11.262569-10.750634 7.679024-14.846114 16.893854-7.16709 28.156423-8.190959 5.11935-23.037073-2.559675-23.549008 6.14322 0.511935 20.989333-12.286439 29.692228-31.228032 41.466731z m59.89639 49.657691c16.893854-38.907057 40.442862-68.08735 71.158959-92.148292 6.655154-5.11935 12.798374-11.262569 19.453529-16.381919 6.655154-5.631285 6.655154-11.262569-1.02387-15.358049-4.607415-2.559675-8.190959-7.679024-15.358049-7.167089 3.583545 11.774504-2.04774 19.453528-10.750634 26.108683-13.822244 11.262569-25.596748 25.084813-39.930927 34.811577-24.572878 15.869984-31.739967 37.371252-23.549008 70.135089z m71.670894-239.073625c-3.583545 9.214829 2.04774 14.846114 7.679024 18.941593 14.846114 11.262569 15.869984 21.501268 0 32.763837-3.583545 2.559675-6.14322 6.14322-8.702894 9.21483-6.655154 7.167089-7.167089 13.822244 1.02387 20.477398 8.190959 7.167089 16.381919 14.334179 25.084813 21.501268 3.07161 2.559675 6.14322 5.11935 9.726764 1.02387 4.09548-4.09548 5.631285-9.726764 4.607415-15.358049-0.511935-3.583545-1.02387-6.655154-6.655155-5.631284-13.310309 2.04774-7.167089-4.607415-3.583544-9.214829 6.14322-7.167089 13.822244-13.822244 7.167089-27.132553-6.14322 6.655154-11.262569 12.286439-16.381919 17.917723-2.559675 2.559675-5.11935 6.655154-9.214829 3.07161-5.11935-4.09548 0-7.167089 2.559675-10.238699 22.013203-25.084813 22.013203-25.084813-2.04774-49.657691-2.559675-2.559675-4.607415-7.167089-11.262569-7.679024zM420.875577 285.78979c-15.358049 10.750634-25.084813 27.132553-47.098016 27.644487 8.190959 6.655154 13.310309 16.381919 18.941594 12.286439 13.310309-8.702894 28.156423-17.917724 28.156422-39.930926z m188.904-18.941594v-27.644488c-18.429659 13.310309-18.429659 13.310309 0 27.644488zM585.718634 215.142765c-17.405789 14.334179-17.405789 14.334179 0 26.620618V215.142765z m-22.525138-19.453528c-17.917724 11.262569-17.917724 11.774504 0 23.037073v-23.037073zM378.384976 293.980749c-0.511935-4.09548 2.04774-10.238699-4.09548-10.238699-6.655154 0.511935-11.774504 6.14322-12.798374 13.310309-0.511935 5.631285 3.583545 8.190959 9.214829 8.190959 9.726764 0 6.655154-6.655154 7.679025-11.262569z" fill="currentColor" p-id="5127"></path>
</svg>